<svg xmlns="http://www.w3.org/2000/svg" xmlns:xlink="http://www.w3.org/1999/xlink" width="500" zoomAndPan="magnify" viewBox="0 0 375 374.999991" height="500" preserveAspectRatio="xMidYMid meet" version="1.0"><defs><clipPath id="e3bea5c8ec"><path d="M 112 134 L 245.351562 134 L 245.351562 328.039062 L 112 328.039062 Z M 112 134 " clip-rule="nonzero"/></clipPath></defs><path fill="#f0e381" d="M 195.578125 135.71875 C 195.382812 135.71875 195.25 135.589844 195.1875 135.394531 L 169.792969 134.484375 L 172.144531 137.738281 C 173.316406 137.804688 174.625 137.867188 175.929688 137.867188 C 175.796875 137.738281 175.734375 137.476562 176.125 137.476562 C 176.320312 137.671875 176.191406 137.804688 176.320312 137.933594 C 187.285156 138.390625 200.40625 138.84375 200.605469 138.84375 L 202.886719 135.71875 L 202.628906 135.71875 L 195.839844 135.460938 C 195.707031 135.523438 195.644531 135.65625 195.578125 135.71875 Z M 174.230469 136.371094 C 174.230469 136.175781 174.167969 135.914062 174.167969 135.71875 C 174.492188 135.589844 174.625 135.785156 174.753906 135.851562 C 174.753906 136.046875 174.820312 136.566406 174.230469 136.371094 Z M 199.492188 137.867188 C 199.691406 138.0625 199.691406 138.324219 199.492188 138.519531 C 199.101562 138.324219 199.035156 138.128906 199.492188 137.867188 Z M 198.90625 211.371094 L 199.363281 214.496094 C 200.863281 215.472656 202.496094 216.515625 204 217.492188 C 203.605469 216.644531 205.824219 215.082031 206.152344 216.839844 C 205.695312 216.96875 205.171875 216.839844 204.652344 216.90625 C 204.390625 217.164062 204.257812 217.425781 204.324219 217.6875 C 205.890625 218.664062 207.261719 219.574219 208.242188 220.226562 C 209.023438 220.746094 209.546875 221.070312 209.546875 221.070312 L 210.527344 219.117188 L 209.023438 218.140625 Z M 202.234375 214.105469 C 202.886719 213.78125 202.171875 214.886719 202.234375 214.105469 Z M 208.632812 219.117188 C 209.285156 219.25 208.761719 220.09375 208.632812 219.117188 Z M 194.074219 148.089844 L 193.617188 150.304688 C 193.617188 150.304688 193.554688 150.304688 193.554688 150.304688 C 193.554688 150.367188 193.554688 150.5 193.554688 150.628906 L 193.359375 151.605469 L 193.292969 151.605469 L 181.542969 150.695312 L 179.191406 147.4375 C 186.375 147.765625 194.074219 148.089844 194.074219 148.089844 Z M 160.195312 171.007812 C 151.582031 175.171875 144.335938 178.753906 144.335938 178.753906 C 144.921875 178.429688 149.753906 175.5625 155.953125 171.917969 C 156.085938 172.046875 156.476562 172.046875 156.800781 171.65625 C 156.738281 171.59375 156.738281 171.527344 156.671875 171.527344 C 157 171.332031 157.324219 171.136719 157.585938 170.941406 Z M 163.460938 243.921875 C 162.875 243.402344 163.003906 243.078125 162.351562 243.140625 C 161.304688 243.859375 160.589844 244.640625 160.261719 245.484375 C 153.34375 245.421875 148.382812 245.484375 148.054688 245.679688 L 148.054688 245.160156 L 147.925781 242.554688 C 148.121094 242.6875 148.054688 242.296875 147.925781 242.296875 L 147.925781 242.230469 L 149.296875 242.101562 C 149.359375 243.011719 150.46875 244.117188 151.125 243.402344 C 150.46875 243.402344 150.273438 242.75 150.144531 242.035156 L 163.917969 240.992188 C 163.785156 241.839844 164.441406 242.621094 166.332031 240.929688 C 166.332031 240.863281 166.269531 240.863281 166.269531 240.796875 L 169.726562 240.539062 C 168.226562 242.164062 166.722656 243.792969 165.222656 245.421875 C 164.113281 245.421875 163.003906 245.421875 161.894531 245.355469 C 162.15625 244.898438 162.613281 244.378906 163.460938 243.921875 Z M 229.523438 178.167969 L 228.738281 177.710938 L 224.691406 175.5 C 224.691406 175.628906 224.625 175.757812 224.429688 175.824219 C 223.777344 175.304688 222.863281 176.085938 222.863281 174.847656 C 222.929688 174.71875 222.992188 174.652344 223.058594 174.585938 L 222.929688 174.523438 L 222.339844 174.195312 L 221.425781 175.042969 L 220.96875 175.5 C 221.558594 176.085938 227.957031 179.925781 227.957031 179.925781 L 228.671875 179.273438 L 229.324219 178.6875 C 229.261719 178.625 229.390625 178.363281 229.523438 178.167969 Z M 222.601562 176.28125 C 222.929688 175.953125 222.796875 176.800781 222.601562 176.28125 Z M 161.761719 137.023438 L 161.4375 134.222656 L 162.089844 134.222656 C 162.808594 135.265625 163.460938 136.242188 164.046875 137.152344 Z M 187.546875 156.421875 L 186.175781 157.140625 L 184.609375 154.992188 C 185.199219 154.601562 185.589844 154.40625 185.589844 154.40625 C 185.589844 154.40625 186.765625 155.511719 187.546875 156.421875 Z M 220.121094 207.984375 C 219.925781 207.984375 219.859375 207.984375 219.796875 208.050781 C 219.796875 207.855469 219.796875 207.789062 219.730469 207.726562 C 219.535156 207.660156 219.402344 207.53125 219.207031 207.398438 C 214.835938 204.992188 204.324219 199.195312 200.929688 197.632812 C 200.277344 197.308594 199.886719 197.179688 199.886719 197.242188 C 199.691406 197.828125 199.886719 201.671875 199.886719 201.671875 L 200.210938 202.84375 L 200.800781 203.167969 C 200.996094 203.234375 201.191406 203.296875 201.257812 203.234375 C 201.257812 203.296875 201.191406 203.363281 201.191406 203.363281 L 204.324219 204.992188 C 204.257812 204.796875 204.585938 204.273438 204.910156 204.078125 C 205.042969 204.210938 205.238281 204.40625 205.367188 204.46875 C 205.238281 204.859375 204.390625 204.601562 204.652344 204.992188 C 204.585938 204.992188 204.519531 204.992188 204.519531 205.054688 L 213.464844 209.742188 C 213.464844 209.679688 213.464844 209.679688 213.398438 209.613281 C 213.464844 209.222656 214.050781 209.417969 214.179688 209.546875 C 214.179688 209.742188 214.117188 209.875 214.050781 210.070312 L 214.835938 210.460938 L 216.726562 211.4375 C 216.726562 211.175781 216.792969 210.785156 216.792969 210.460938 C 217.054688 210.460938 217.316406 210.394531 217.574219 210.394531 C 217.445312 210.785156 217.316406 211.242188 217.316406 211.761719 L 217.96875 212.085938 L 218.292969 211.695312 C 218.292969 211.371094 218.621094 210.980469 218.945312 210.914062 L 221.167969 208.441406 C 221.167969 208.441406 220.773438 208.246094 220.121094 207.855469 C 220.121094 207.921875 220.121094 207.921875 220.121094 207.984375 Z M 201.910156 202.648438 C 201.582031 202.777344 201.453125 202.582031 201.453125 202.191406 C 201.910156 202.125 201.972656 202.320312 201.910156 202.648438 Z M 202.691406 203.296875 C 202.691406 203.234375 202.886719 203.429688 202.691406 203.296875 Z M 202.824219 198.9375 C 202.757812 198.414062 203.542969 199 202.824219 198.9375 Z M 207 202.972656 C 206.609375 202.0625 205.367188 202.0625 204.519531 202.0625 C 204.457031 202.257812 204.390625 202.582031 204.585938 202.84375 C 203.738281 203.234375 204.457031 201.996094 204.0625 201.671875 C 204.976562 201.085938 207.652344 201.476562 207 202.972656 Z M 216.269531 208.570312 C 216.269531 208.570312 216.269531 208.507812 216.269531 208.570312 Z M 216.269531 208.375 C 216.007812 208.117188 216.335938 207.789062 216.660156 207.53125 C 216.792969 207.660156 216.988281 207.855469 217.117188 207.921875 C 216.792969 208.375 216.53125 207.855469 216.269531 208.375 Z M 196.035156 210.265625 L 197.210938 210.914062 C 196.816406 211.304688 196.425781 211.761719 195.96875 212.21875 C 194.988281 211.566406 194.273438 211.109375 194.074219 210.980469 Z M 124.6875 100.757812 C 124.882812 100.824219 125.078125 100.953125 125.273438 101.019531 L 124.359375 101.410156 L 124.230469 100.953125 C 124.359375 100.953125 124.488281 100.890625 124.6875 100.757812 Z M 180.300781 297.4375 L 184.21875 299.523438 L 178.800781 301.605469 C 178.800781 301.605469 136.695312 277.582031 135.71875 276.996094 L 135.914062 276.539062 L 136.042969 276.214844 L 137.21875 274.652344 L 138.066406 275.109375 Z M 129.515625 107.789062 L 129.84375 109.222656 L 128.863281 109.484375 Z M 201.714844 238.257812 L 198.839844 246.136719 C 201.320312 246.203125 203.214844 246.265625 204.195312 246.265625 C 204.714844 246.265625 205.042969 246.265625 205.042969 246.265625 L 207.980469 237.804688 L 203.019531 238.195312 Z M 200.734375 243.140625 C 200.40625 242.816406 200.539062 242.230469 201.0625 242.230469 C 201.386719 242.425781 201.0625 243.011719 200.734375 243.140625 Z M 201.84375 241.578125 C 201.453125 241.382812 201.191406 241.125 201.777344 240.796875 C 201.519531 241.058594 202.234375 241.320312 201.84375 241.578125 Z M 142.964844 93.078125 L 141.59375 93.664062 C 141.65625 93.140625 141.789062 92.492188 141.855469 91.839844 C 142.179688 91.644531 142.375 91.578125 142.375 91.578125 C 142.375 91.578125 142.769531 92.296875 142.964844 93.078125 Z M 163.851562 124.652344 C 164.699219 125.304688 171.03125 126.867188 171.03125 126.867188 C 171.03125 126.867188 185.917969 113 185.917969 113.519531 C 185.917969 113.648438 186.375 114.691406 187.089844 116.125 C 187.351562 116.125 187.484375 116.1875 187.613281 116.253906 C 187.679688 116.449219 187.546875 116.710938 187.484375 116.90625 C 189.246094 120.355469 191.988281 125.5625 193.03125 127.453125 C 193.226562 127.386719 193.359375 127.386719 193.554688 127.320312 C 193.554688 127.453125 193.617188 127.648438 193.75 127.777344 C 193.617188 127.90625 193.488281 128.039062 193.359375 128.101562 C 193.421875 128.167969 193.421875 128.234375 193.421875 128.234375 L 201.910156 123.871094 L 194.207031 125.109375 L 185.917969 112.738281 C 185.917969 112.738281 171.621094 124.71875 170.835938 124.523438 C 170.183594 124.390625 165.875 123.21875 164.242188 122.765625 C 163.851562 122.632812 163.65625 122.570312 163.65625 122.570312 Z M 174.492188 122.570312 C 174.820312 122.179688 174.753906 123.089844 174.492188 122.570312 Z M 168.355469 146.984375 L 168.292969 149.71875 L 166.789062 149.585938 L 167.378906 146.851562 C 167.507812 146.917969 167.898438 146.984375 168.355469 146.984375 Z M 148.121094 104.46875 L 145.507812 100.890625 C 146.226562 100.628906 146.683594 100.433594 146.683594 100.433594 L 148.839844 104.273438 Z M 148.121094 104.46875 " fill-opacity="1" fill-rule="nonzero"/><path fill="#faa21b" d="M 129.515625 107.789062 L 129.84375 109.222656 L 148.121094 104.46875 L 145.507812 100.890625 C 141.855469 102.320312 130.496094 106.8125 129.515625 107.789062 Z M 139.570312 104.925781 C 139.046875 105.511719 138.65625 104.40625 139.570312 104.925781 Z M 142.441406 105.773438 C 142.441406 105.578125 142.441406 105.511719 142.375 105.445312 C 142.636719 105.316406 142.769531 105.382812 142.832031 105.773438 C 142.769531 105.773438 142.636719 105.773438 142.441406 105.773438 Z M 143.289062 103.558594 C 142.964844 103.101562 143.878906 103.949219 143.289062 103.558594 Z M 146.945312 103.882812 C 147.207031 103.753906 147.207031 103.949219 147.335938 104.015625 C 147.46875 104.273438 146.75 104.273438 146.945312 103.882812 Z M 197.601562 210.460938 C 197.535156 210.394531 197.535156 210.394531 197.46875 210.394531 L 196.816406 209.9375 L 196.035156 210.199219 L 189.507812 206.488281 C 189.507812 206.488281 194.207031 200.367188 194.53125 199.71875 L 195.054688 199.847656 C 194.988281 199.914062 194.988281 199.976562 194.988281 200.042969 C 195.1875 200.042969 195.316406 199.976562 195.382812 199.914062 L 195.644531 199.976562 L 197.339844 201.019531 L 197.601562 202.777344 C 197.601562 202.777344 197.535156 202.84375 197.535156 202.90625 C 197.535156 202.90625 197.601562 202.90625 197.601562 202.90625 L 198.90625 211.242188 Z M 188.070312 157.53125 C 187.742188 157.660156 172.597656 165.015625 160.195312 171.007812 L 163.785156 171.070312 C 163.984375 171.070312 164.113281 171.070312 164.308594 171.070312 L 167.117188 171.136719 L 166.203125 174.71875 C 166.332031 174.914062 166.527344 175.109375 166.722656 175.367188 C 166.527344 175.367188 166.269531 175.367188 166.070312 175.304688 L 163.003906 187.671875 C 163.003906 187.738281 163.003906 187.738281 163.003906 187.804688 L 161.175781 195.03125 C 161.242188 195.09375 161.242188 195.160156 161.242188 195.289062 C 161.175781 195.289062 161.175781 195.289062 161.109375 195.289062 L 160.980469 195.875 C 164.636719 194.117188 168.683594 192.164062 172.796875 190.210938 C 172.664062 190.148438 172.664062 190.015625 172.730469 189.820312 C 172.796875 189.820312 172.992188 189.820312 173.121094 189.757812 C 173.121094 189.820312 173.121094 189.953125 173.121094 190.015625 C 175.863281 188.714844 178.605469 187.347656 181.28125 186.046875 C 180.890625 185.394531 180.890625 184.679688 181.933594 185.199219 C 181.609375 185.460938 181.609375 185.65625 181.671875 185.851562 C 185.328125 184.027344 188.917969 182.269531 192.050781 180.707031 C 192.050781 180.707031 191.988281 180.707031 191.988281 180.707031 C 191.988281 180.511719 191.988281 180.445312 191.921875 180.382812 C 192.183594 180.25 192.378906 180.316406 192.378906 180.578125 C 192.964844 180.316406 193.488281 179.992188 194.011719 179.730469 L 192.769531 171.59375 L 200.40625 171.722656 L 202.171875 168.011719 L 200.800781 164.625 L 193.097656 164.5625 L 193.226562 153.429688 L 187.484375 156.421875 C 188.003906 156.945312 188.332031 157.398438 188.070312 157.53125 Z M 175.082031 169.640625 C 175.082031 170.160156 174.101562 170.03125 174.363281 171.007812 C 172.207031 171.203125 174.035156 168.207031 175.082031 169.640625 Z M 166.921875 186.828125 C 167.441406 186.242188 167.574219 187.28125 166.921875 186.828125 Z M 166.789062 189.105469 C 166.464844 189.757812 166.332031 188.648438 166.789062 189.105469 Z M 163.785156 189.820312 C 163.984375 189.300781 163.917969 190.34375 163.785156 189.820312 Z M 166.527344 192.816406 C 164.503906 192.6875 166.070312 190.082031 167.441406 190.667969 C 167.246094 191.449219 165.941406 191.578125 166.527344 192.816406 Z M 167.636719 187.933594 C 167.703125 187.476562 168.09375 187.804688 168.226562 187.867188 C 168.226562 188.195312 167.703125 188 167.636719 187.933594 Z M 169.726562 183.832031 C 169.792969 183.832031 169.988281 183.832031 170.117188 183.765625 C 170.117188 183.832031 170.117188 184.027344 170.183594 184.222656 C 169.792969 184.351562 169.660156 184.289062 169.726562 183.832031 Z M 172.078125 172.632812 C 172.078125 172.179688 172.730469 172.765625 172.078125 172.632812 Z M 172.925781 170.679688 C 172.597656 171.265625 172.273438 170.226562 172.925781 170.679688 Z M 173.773438 179.273438 C 171.292969 179.015625 174.363281 175.757812 175.277344 177.648438 C 174.753906 178.6875 173.839844 177.710938 173.773438 179.273438 Z M 175.992188 183.636719 C 175.734375 183.960938 174.949219 183.179688 174.882812 182.464844 C 175.277344 182.269531 175.667969 181.75 176.125 182.140625 C 176.058594 182.59375 175.210938 183.3125 175.992188 183.636719 Z M 178.605469 185.523438 C 178.277344 185.589844 178.019531 185.523438 177.886719 185.394531 C 177.820312 184.742188 178.019531 184.484375 178.539062 184.546875 C 178.671875 184.742188 178.734375 185.328125 178.605469 185.523438 Z M 179.128906 184.9375 C 179.0625 184.484375 179.714844 185.003906 179.128906 184.9375 Z M 179.714844 176.996094 C 180.042969 176.929688 180.300781 176.929688 180.5625 176.929688 C 180.824219 177.90625 179.84375 177.515625 179.714844 176.996094 Z M 180.695312 180.835938 C 180.695312 180.640625 181.019531 180.707031 181.085938 180.773438 C 181.28125 181.164062 180.695312 181.292969 180.695312 180.835938 Z M 181.214844 182.789062 C 181.476562 182.789062 181.476562 182.921875 181.609375 182.921875 C 181.738281 183.179688 181.085938 183.179688 181.214844 182.789062 Z M 182.390625 172.046875 C 182.78125 171.984375 182.652344 172.308594 182.78125 172.4375 C 182.523438 172.503906 182.390625 172.308594 182.390625 172.046875 Z M 182.78125 174.457031 C 182.457031 174.523438 182.390625 174.066406 182.585938 173.871094 C 182.980469 173.871094 182.980469 174.195312 182.78125 174.457031 Z M 183.175781 175.5625 C 183.238281 175.5625 183.4375 175.5625 183.566406 175.5 C 183.566406 175.5625 183.566406 175.757812 183.632812 175.953125 C 183.175781 176.019531 182.980469 175.824219 183.175781 175.5625 Z M 183.761719 164.5625 C 183.761719 164.496094 183.828125 164.691406 183.761719 164.5625 Z M 184.9375 172.113281 C 184.9375 171.65625 185.589844 172.242188 184.9375 172.113281 Z M 185.003906 176.605469 C 185.199219 176.085938 185.523438 177.191406 185.003906 176.605469 Z M 187.546875 162.023438 C 187.546875 162.28125 187.417969 162.414062 187.15625 162.414062 C 186.960938 162.085938 187.417969 162.152344 187.546875 162.023438 Z M 187.351562 163.585938 C 187.285156 163.257812 187.742188 163.195312 187.875 163.324219 C 187.941406 163.714844 187.546875 163.714844 187.351562 163.585938 Z M 187.941406 179.015625 C 188.070312 178.558594 187.742188 178.558594 187.679688 178.234375 C 187.808594 178.234375 188.070312 178.167969 188.265625 178.167969 C 188.199219 178.429688 188.332031 179.078125 187.941406 179.015625 Z M 187.742188 173.9375 C 187.941406 173.675781 188.136719 173.871094 188.460938 173.871094 C 188.65625 174.457031 187.613281 174.523438 187.742188 173.9375 Z M 191.726562 172.699219 C 191.726562 172.632812 191.726562 172.503906 191.660156 172.375 C 191.792969 172.375 191.921875 172.375 191.988281 172.308594 C 191.988281 172.503906 191.988281 172.570312 192.050781 172.632812 C 191.855469 172.699219 191.792969 172.699219 191.726562 172.699219 Z M 196.296875 168.664062 C 196.296875 168.726562 196.296875 168.921875 196.359375 168.988281 C 196.230469 168.988281 196.097656 168.988281 196.035156 169.054688 C 196.035156 168.859375 196.035156 168.792969 195.96875 168.726562 C 196.164062 168.726562 196.230469 168.726562 196.296875 168.664062 Z M 193.359375 169.507812 C 193.359375 170.226562 192.902344 170.03125 192.445312 169.964844 C 191.988281 170.09375 192.25 170.617188 192.378906 170.941406 C 190.550781 170.617188 191.921875 168.859375 193.359375 169.507812 Z M 189.570312 178.882812 C 189.246094 178.625 188.917969 178.296875 188.855469 177.710938 C 188.984375 177.453125 189.636719 177.386719 189.832031 177.582031 C 189.636719 178.101562 189.570312 178.234375 189.570312 178.882812 Z M 189.3125 155.835938 C 189.703125 155.707031 189.769531 156.164062 189.769531 156.617188 C 189.375 156.617188 189.179688 156.097656 189.3125 155.835938 Z M 189.636719 166.320312 C 189.570312 166.515625 189.507812 166.449219 189.507812 166.320312 C 189.113281 166.515625 189.3125 166.773438 189.507812 167.101562 C 188.984375 166.96875 188.65625 166.710938 188.527344 166.1875 C 188.984375 166.382812 189.050781 165.601562 189.636719 166.320312 Z M 188.722656 165.34375 C 188.59375 165.796875 187.941406 165.667969 188.265625 166.449219 C 187.285156 166.382812 187.875 164.625 188.722656 165.34375 Z M 157.585938 170.941406 C 167.898438 164.886719 181.019531 157.140625 184.609375 154.992188 L 181.542969 150.695312 L 168.355469 149.71875 L 168.09375 164.171875 L 154.453125 163.976562 L 156.214844 170.875 Z M 175.472656 158.441406 C 175.535156 158.765625 175.144531 158.898438 175.015625 159.289062 C 173.710938 159.351562 174.753906 157.398438 175.472656 158.441406 Z M 173.578125 154.992188 C 173.578125 155.1875 173.578125 155.25 173.644531 155.316406 C 173.511719 155.316406 173.382812 155.316406 173.316406 155.382812 C 173.316406 155.1875 173.316406 155.121094 173.253906 155.054688 C 173.382812 155.054688 173.449219 154.992188 173.578125 154.992188 Z M 168.550781 159.613281 C 168.355469 160.132812 167.898438 159.09375 168.550781 159.613281 Z M 169.792969 134.484375 L 162.285156 124.066406 L 152.558594 120.484375 C 152.558594 120.484375 158.042969 128.296875 162.089844 134.222656 Z M 166.921875 134.15625 C 167.179688 133.507812 167.378906 134.546875 166.921875 134.15625 Z M 164.960938 129.859375 C 164.636719 129.925781 164.375 129.859375 164.242188 129.730469 C 164.179688 129.46875 165.15625 129.273438 164.960938 129.859375 Z M 161.761719 137.023438 L 160.394531 136.957031 L 163.199219 144.183594 C 163.199219 144.183594 163.199219 144.183594 163.265625 144.183594 C 163.265625 144.183594 163.265625 144.183594 163.265625 144.25 L 164.113281 146.398438 L 168.355469 146.65625 L 168.355469 147.046875 C 169.402344 147.113281 171.097656 147.179688 173.121094 147.308594 C 173.253906 147.308594 173.316406 147.308594 173.449219 147.242188 C 173.449219 147.242188 173.449219 147.242188 173.449219 147.308594 C 175.210938 147.375 177.167969 147.4375 179.191406 147.570312 L 172.144531 137.738281 C 166.464844 137.542969 162.089844 137.347656 161.761719 137.28125 Z M 175.082031 144.964844 C 175.015625 144.507812 175.667969 145.03125 175.082031 144.964844 Z M 154.519531 257.074219 L 194.074219 259.222656 L 198.839844 246.070312 C 190.8125 245.875 176.515625 245.617188 165.15625 245.484375 C 161.566406 249.457031 157.976562 253.363281 154.519531 257.074219 Z M 182.523438 250.5625 C 182.652344 250.109375 183.175781 250.628906 182.523438 250.5625 Z M 175.734375 253.753906 C 175.734375 253.949219 175.734375 254.015625 175.796875 254.078125 C 175.667969 254.078125 175.535156 254.078125 175.472656 254.144531 C 175.472656 254.078125 175.472656 253.949219 175.40625 253.820312 C 175.601562 253.820312 175.667969 253.753906 175.734375 253.753906 Z M 143.160156 93.664062 C 142.964844 93.664062 142.769531 93.597656 142.898438 93.273438 C 143.027344 93.273438 143.09375 93.273438 143.09375 93.335938 C 143.09375 93.207031 143.027344 93.140625 143.027344 93.011719 L 141.65625 93.597656 C 141.722656 93.078125 141.855469 92.425781 141.917969 91.773438 C 139.242188 93.140625 127.230469 99.328125 124.6875 100.757812 C 124.882812 100.824219 125.078125 100.953125 125.273438 101.019531 L 124.359375 101.410156 L 124.621094 102.582031 C 124.621094 102.582031 142.441406 94.640625 143.027344 94.445312 C 143.222656 94.378906 143.222656 94.054688 143.160156 93.664062 Z M 139.832031 95.421875 C 139.765625 95.421875 139.570312 95.421875 139.242188 95.484375 C 139.113281 95.160156 139.308594 95.03125 139.308594 94.835938 C 139.570312 94.898438 139.960938 94.898438 139.832031 95.421875 Z M 199.363281 214.429688 C 198.382812 213.78125 197.46875 213.195312 196.6875 212.671875 C 196.753906 212.933594 196.882812 213.0625 196.753906 213.324219 C 196.230469 213.257812 196.035156 212.804688 196.035156 212.28125 C 195.96875 212.28125 195.96875 212.21875 195.902344 212.21875 C 194.53125 213.648438 192.769531 215.539062 190.8125 217.6875 C 187.613281 221.070312 183.761719 225.238281 179.585938 229.796875 C 179.585938 229.859375 179.585938 229.925781 179.453125 229.925781 C 176.320312 233.3125 172.992188 236.890625 169.597656 240.601562 L 199.429688 238.390625 C 199.167969 237.738281 199.101562 236.890625 199.234375 235.980469 C 199.558594 235.523438 199.753906 235.71875 200.472656 235.65625 C 200.210938 236.828125 200.472656 237.542969 200.996094 238.257812 L 201.714844 238.195312 L 202.628906 235.65625 Z M 180.957031 229.273438 C 180.957031 229.078125 181.085938 229.015625 181.347656 228.882812 C 181.410156 229.210938 181.152344 229.210938 180.957031 229.273438 Z M 200.148438 231.945312 C 200.210938 236.890625 196.035156 231.292969 200.148438 231.945312 Z M 200.148438 231.945312 " fill-opacity="1" fill-rule="nonzero"/><path fill="#ef5aa0" d="M 153.734375 172.894531 C 153.929688 172.894531 154.125 172.828125 154.257812 172.894531 C 155.300781 172.242188 156.410156 171.59375 157.585938 170.941406 L 156.148438 170.941406 L 154.386719 164.039062 L 162.613281 164.171875 C 162.613281 164.039062 162.742188 163.976562 162.875 164.171875 L 168.03125 164.234375 L 168.292969 149.78125 L 166.789062 149.652344 L 167.378906 146.917969 C 167.507812 146.917969 167.835938 146.984375 168.355469 146.984375 L 168.355469 146.59375 L 164.113281 146.332031 L 160.394531 136.890625 L 161.761719 136.957031 L 161.4375 134.15625 L 162.089844 134.15625 C 160 131.164062 157.585938 127.582031 155.628906 124.847656 C 155.496094 125.109375 155.496094 125.367188 155.691406 125.824219 C 154.191406 125.890625 154.257812 124.328125 154.910156 123.742188 C 153.539062 121.789062 152.558594 120.421875 152.558594 120.421875 L 162.285156 124 L 159.152344 119.703125 C 158.957031 120.289062 158.957031 120.941406 159.21875 121.65625 C 157.390625 121.789062 157.257812 118.859375 158.433594 118.726562 L 148.121094 104.46875 L 129.84375 109.222656 L 144.335938 178.753906 C 144.855469 178.492188 148.644531 176.214844 153.800781 173.21875 C 153.734375 173.15625 153.734375 173.023438 153.734375 172.894531 Z M 166.203125 158.765625 C 166.203125 158.832031 166.203125 159.027344 166.269531 159.222656 C 165.875 159.351562 165.8125 159.289062 165.8125 158.832031 C 165.941406 158.832031 166.070312 158.832031 166.203125 158.765625 Z M 164.308594 162.867188 C 164.375 163.195312 163.851562 163 163.722656 162.933594 C 163.785156 162.476562 164.242188 162.804688 164.308594 162.867188 Z M 163.070312 161.828125 C 163.589844 161.242188 163.722656 162.28125 163.070312 161.828125 Z M 157.652344 162.738281 C 157.652344 162.21875 158.171875 162.804688 157.652344 162.738281 Z M 158.433594 158.507812 C 158.367188 157.984375 159.085938 158.570312 158.433594 158.507812 Z M 158.890625 162.609375 C 159.085938 162.085938 159.347656 163.195312 158.890625 162.609375 Z M 158.890625 159.9375 C 159.023438 159.9375 159.28125 159.875 159.480469 159.875 C 159.480469 160.132812 159.542969 160.394531 159.542969 160.65625 C 159.085938 160.785156 158.957031 160.394531 158.890625 159.9375 Z M 160.914062 152.515625 C 160.457031 152.648438 160.132812 151.996094 160.394531 151.605469 C 160.652344 151.605469 160.71875 151.734375 160.980469 151.734375 C 160.980469 152.0625 160.652344 152.0625 160.914062 152.515625 Z M 161.566406 147.179688 C 161.4375 147.4375 161.109375 147.503906 160.914062 147.632812 C 160.914062 148.351562 161.242188 148.609375 161.4375 149 C 161.894531 149.066406 162.089844 148.742188 162.546875 148.675781 C 161.828125 149.390625 162.480469 149.78125 162.875 150.367188 C 161.175781 150.433594 159.609375 147.894531 158.957031 146.65625 C 159.609375 145.679688 161.304688 145.941406 161.566406 147.179688 Z M 158.890625 143.273438 C 158.824219 142.6875 159.542969 143.273438 158.890625 143.273438 Z M 158.5 154.664062 C 158.695312 154.730469 158.695312 154.796875 158.824219 154.796875 C 158.695312 154.925781 158.695312 154.925781 158.695312 155.1875 C 158.5 155.121094 158.5 155.054688 158.367188 155.054688 C 158.433594 154.796875 158.566406 154.796875 158.5 154.664062 Z M 157.847656 155.707031 C 158.109375 155.121094 158.304688 156.292969 157.847656 155.707031 Z M 158.109375 154.339844 C 157.910156 154.730469 157.847656 155.1875 157.324219 155.25 C 156.800781 154.664062 157.390625 153.949219 158.109375 154.339844 Z M 156.605469 152.777344 C 156.148438 152.90625 155.824219 152.257812 156.085938 151.867188 C 156.933594 151.734375 157 152.191406 156.605469 152.777344 Z M 156.34375 132.269531 C 155.953125 132.398438 155.953125 132.203125 155.757812 132.140625 C 155.628906 131.878906 156.542969 131.75 156.34375 132.269531 Z M 155.691406 159.289062 C 156.019531 159.15625 156.085938 159.351562 156.148438 159.679688 C 155.757812 159.808594 155.5625 159.742188 155.691406 159.289062 Z M 154.84375 150.953125 C 154.777344 150.5 155.496094 151.085938 154.84375 150.953125 Z M 154.714844 168.921875 C 154.519531 168.859375 154.125 168.921875 154.257812 168.335938 C 154.519531 168.335938 154.648438 168.273438 154.84375 168.273438 C 154.910156 168.664062 154.777344 168.726562 154.714844 168.921875 Z M 154.777344 167.230469 C 154.84375 167.554688 154.320312 167.359375 154.191406 167.296875 C 154.125 166.90625 154.714844 167.101562 154.777344 167.230469 Z M 133.367188 109.484375 C 132.976562 109.679688 132.976562 109.351562 132.585938 109.222656 C 132.585938 108.117188 134.019531 108.703125 133.367188 109.484375 Z M 136.957031 133.117188 C 136.695312 132.984375 136.632812 132.269531 136.828125 132.074219 C 137.285156 131.945312 137.414062 132.203125 137.742188 132.140625 C 137.609375 132.59375 137.609375 133.179688 136.957031 133.117188 Z M 138.460938 139.496094 C 138.066406 139.367188 137.546875 139.300781 137.609375 138.519531 C 137.871094 138.390625 138.199219 138.195312 138.65625 138.390625 C 138.460938 138.910156 138.460938 139.039062 138.460938 139.496094 Z M 139.113281 122.046875 C 137.804688 122.894531 138.066406 119.703125 139.570312 120.746094 C 139.503906 121.203125 138.460938 121.460938 139.113281 122.046875 Z M 139.375 118.140625 C 139.375 117.945312 139.375 117.882812 139.308594 117.816406 C 139.4375 117.816406 139.570312 117.816406 139.632812 117.75 C 139.632812 117.945312 139.632812 118.011719 139.699219 118.078125 C 139.503906 118.140625 139.375 118.140625 139.375 118.140625 Z M 140.484375 119.640625 C 140.679688 119.117188 140.941406 120.160156 140.484375 119.640625 Z M 140.875 148.15625 C 141.136719 147.503906 141.332031 148.609375 140.875 148.15625 Z M 141.855469 130.445312 C 140.484375 130.707031 140.875 127.777344 142.050781 128.625 C 142.3125 129.40625 141.65625 129.535156 141.855469 130.445312 Z M 142.832031 122.765625 C 142.507812 122.894531 142.375 122.828125 142.375 122.375 C 142.636719 122.308594 142.769531 122.503906 142.832031 122.765625 Z M 142.898438 156.75 C 142.113281 156.945312 142.375 155.445312 142.964844 155.902344 C 143.09375 156.359375 142.769531 156.359375 142.898438 156.75 Z M 144.398438 150.953125 C 144.726562 150.757812 145.117188 150.695312 145.183594 150.890625 C 145.25 151.671875 144.398438 152.515625 143.617188 152.125 C 143.8125 151.671875 144.464844 151.671875 144.398438 150.953125 Z M 144.136719 172.179688 C 144.398438 172.046875 144.398438 172.242188 144.53125 172.308594 C 144.660156 172.570312 143.941406 172.570312 144.136719 172.179688 Z M 144.921875 162.023438 C 142.179688 162.609375 144.660156 158.246094 145.574219 161.5 C 144.660156 160.980469 145.050781 162.023438 144.921875 162.023438 Z M 145.902344 117.621094 C 145.835938 117.296875 146.421875 117.492188 146.617188 117.554688 C 146.75 117.75 146.097656 117.945312 146.488281 118.011719 C 146.292969 118.664062 146.097656 117.6875 145.902344 117.621094 Z M 146.816406 174.585938 C 146.488281 174.71875 146.421875 174.523438 146.226562 174.457031 C 146.097656 174.261719 147.011719 174.132812 146.816406 174.585938 Z M 146.945312 114.171875 C 146.683594 114.171875 146.488281 114.234375 146.226562 114.234375 C 146.292969 113.585938 145.902344 113.390625 146.097656 113.0625 C 146.488281 113 146.816406 113 147.011719 113.128906 C 147.011719 113.648438 146.816406 113.78125 146.945312 114.171875 Z M 149.816406 123.089844 C 149.492188 122.375 149.753906 121.65625 150.40625 121.917969 C 150.273438 122.4375 150.273438 122.960938 149.816406 123.089844 Z M 150.40625 161.695312 C 150.535156 161.5 150.796875 161.371094 151.125 161.4375 C 150.992188 161.828125 150.796875 162.023438 150.925781 162.476562 C 150.601562 162.347656 150.339844 162.28125 150.40625 161.695312 Z M 150.730469 169.507812 C 150.730469 169.445312 150.730469 169.3125 150.667969 169.183594 C 150.796875 169.183594 150.925781 169.183594 150.992188 169.117188 C 150.992188 169.3125 150.992188 169.378906 151.058594 169.445312 C 150.863281 169.507812 150.796875 169.507812 150.730469 169.507812 Z M 151.058594 164.367188 C 150.925781 163.910156 151.058594 163.648438 151.582031 163.714844 C 151.320312 163.976562 151.644531 164.5625 151.058594 164.367188 Z M 151.582031 167.6875 C 151.515625 167.035156 151.710938 167.230469 152.101562 167.296875 C 152.167969 167.945312 151.972656 167.75 151.582031 167.6875 Z M 152.492188 154.730469 C 152.753906 154.730469 152.753906 154.859375 152.886719 154.859375 C 153.082031 155.1875 152.296875 155.1875 152.492188 154.730469 Z M 153.277344 168.335938 C 153.148438 168.011719 153.40625 167.945312 153.667969 167.945312 C 153.472656 168.140625 153.40625 168.335938 153.277344 168.335938 Z M 153.605469 161.890625 C 153.605469 161.371094 154.191406 161.957031 153.605469 161.890625 Z M 196.554688 211.632812 C 196.816406 211.371094 197.011719 211.175781 197.210938 210.914062 L 196.035156 210.265625 L 196.816406 210.003906 L 198.90625 211.371094 L 199.363281 214.496094 C 198.449219 213.910156 197.535156 213.324219 196.753906 212.804688 C 196.621094 212.414062 196.554688 212.023438 196.554688 211.632812 Z M 204.78125 174.457031 C 204.78125 174.457031 204.714844 174.457031 204.652344 174.523438 C 204.652344 174.390625 204.652344 174.328125 204.652344 174.195312 Z M 195.839844 152.0625 L 193.226562 153.429688 L 193.226562 155.316406 C 193.421875 155.382812 193.554688 155.511719 193.683594 155.773438 C 193.554688 155.707031 193.359375 155.707031 193.226562 155.773438 L 193.226562 157.921875 C 193.359375 157.921875 193.617188 157.855469 193.75 157.855469 C 193.945312 158.179688 193.292969 158.636719 193.683594 158.703125 C 193.554688 159.09375 193.292969 158.765625 193.226562 158.375 L 193.160156 164.625 L 200.863281 164.691406 Z M 196.554688 163 C 196.492188 162.933594 196.753906 163.128906 196.554688 163 Z M 197.210938 161.5 C 197.078125 161.5 196.949219 161.5 196.882812 161.566406 C 196.882812 161.371094 196.753906 161.371094 196.6875 161.4375 C 196.554688 161.109375 197.339844 161.046875 197.210938 161.5 Z M 196.425781 161.175781 C 196.296875 161.632812 195.96875 161.109375 195.707031 161.242188 C 195.644531 160.070312 196.621094 158.703125 197.535156 159.222656 C 197.210938 159.742188 196.230469 160.328125 196.425781 161.175781 Z M 197.863281 160.914062 C 197.863281 160.980469 197.925781 160.980469 198.125 161.046875 C 197.992188 161.046875 197.863281 160.980469 197.863281 160.914062 Z M 127.820312 99.066406 C 127.425781 98.742188 127.625 98.15625 127.949219 97.699219 C 128.339844 97.828125 128.929688 97.765625 128.992188 98.414062 C 128.667969 98.480469 128.535156 98.609375 128.472656 98.804688 C 133.042969 96.398438 140.027344 92.882812 141.984375 91.839844 C 142.441406 88.910156 143.09375 84.679688 143.550781 81.488281 C 143.355469 81.617188 142.832031 81.617188 142.898438 81.097656 C 143.222656 81.097656 143.421875 81.097656 143.617188 81.164062 C 143.878906 79.40625 144.074219 78.039062 144.136719 77.386719 C 144.269531 76.476562 140.546875 73.675781 135.652344 70.421875 C 135.585938 70.421875 135.585938 70.421875 135.523438 70.421875 C 135.523438 70.355469 135.523438 70.355469 135.523438 70.289062 C 126.449219 64.300781 113.523438 56.878906 113.523438 56.878906 L 112.21875 93.46875 C 112.21875 93.46875 120.441406 98.546875 124.816406 100.695312 C 125.273438 100.433594 126.382812 99.847656 127.820312 99.066406 Z M 143.09375 78.882812 C 143.355469 78.753906 143.355469 78.949219 143.484375 79.015625 C 143.617188 79.273438 142.898438 79.273438 143.09375 78.882812 Z M 141.199219 90.277344 C 140.808594 90.34375 140.613281 90.082031 140.546875 89.691406 C 140.941406 89.5625 141.199219 89.757812 141.199219 90.277344 Z M 139.375 78.558594 C 139.113281 78.167969 140.027344 78.949219 139.375 78.558594 Z M 138.980469 80.773438 C 138.917969 80.773438 138.71875 80.773438 138.589844 80.835938 C 138.589844 80.640625 138.589844 80.578125 138.523438 80.511719 C 138.785156 80.316406 138.980469 80.382812 138.980469 80.773438 Z M 138.65625 83.117188 C 138.589844 83.960938 138.003906 84.351562 137.21875 84.546875 C 136.4375 83.375 137.804688 82.398438 138.65625 83.117188 Z M 135.652344 79.925781 C 135.195312 80.511719 134.804688 79.40625 135.652344 79.925781 Z M 126.96875 85.328125 C 126.839844 85.328125 126.644531 85.199219 126.382812 85.199219 C 126.1875 84.351562 127.425781 84.613281 126.96875 85.328125 Z M 126.644531 68.273438 C 126.253906 68.335938 125.992188 68.273438 126.054688 67.882812 C 126.382812 67.75 126.644531 67.816406 126.644531 68.273438 Z M 113.847656 65.992188 C 113.457031 66.125 113.195312 65.992188 113.195312 65.40625 C 113.523438 65.472656 113.980469 65.539062 113.847656 65.992188 Z M 115.808594 73.089844 C 115.742188 72.632812 116.070312 73.21875 116.394531 73.023438 C 116.394531 73.414062 115.808594 73.089844 115.808594 73.089844 Z M 116.332031 79.46875 C 116.460938 79.273438 116.851562 79.210938 117.046875 79.40625 C 116.917969 79.796875 116.394531 80.054688 116.332031 79.46875 Z M 118.09375 63.390625 C 118.417969 63.257812 118.746094 62.933594 119.070312 63.257812 C 119.269531 63.976562 117.960938 64.367188 118.09375 63.390625 Z M 119.398438 72.503906 C 119.59375 72.242188 120.179688 72.179688 120.3125 72.765625 C 120.507812 73.9375 118.484375 73.351562 119.398438 72.503906 Z M 120.769531 94.054688 C 120.574219 93.140625 121.683594 92.6875 122.140625 93.273438 C 122.207031 94.117188 121.09375 94.445312 120.769531 94.054688 Z M 124.292969 92.296875 C 123.902344 92.492188 123.902344 92.164062 123.511719 92.035156 C 123.640625 91.644531 124.425781 91.839844 124.292969 92.296875 Z M 124.945312 76.476562 C 124.816406 76.476562 124.554688 76.539062 124.359375 76.539062 C 124.359375 75.890625 125.144531 75.824219 124.945312 76.476562 Z M 145.507812 100.890625 C 141.789062 102.320312 130.429688 106.8125 129.515625 107.789062 L 125.078125 109.742188 L 120.769531 103.039062 L 124.359375 101.410156 L 124.621094 102.582031 C 124.621094 102.582031 142.441406 94.640625 143.027344 94.445312 C 143.289062 94.378906 143.160156 93.726562 142.964844 93.078125 L 146.421875 91.515625 L 149.492188 98.871094 L 145.378906 100.695312 Z M 111.433594 57.140625 C 108.757812 57.855469 106.015625 56.292969 105.234375 53.625 C 104.515625 50.953125 106.082031 48.21875 108.757812 47.503906 C 111.433594 46.789062 114.175781 48.351562 114.894531 51.019531 C 115.742188 53.625 114.109375 56.359375 111.433594 57.140625 Z M 204.195312 173.21875 C 204.195312 173.21875 204.257812 173.21875 204.257812 173.21875 L 202.171875 168.078125 L 200.40625 171.789062 L 196.6875 171.722656 C 196.554688 171.984375 196.425781 172.113281 196.554688 171.722656 L 192.835938 171.65625 L 193.816406 177.90625 C 193.945312 177.90625 194.074219 178.101562 193.816406 178.101562 L 194.074219 179.859375 C 199.234375 177.320312 203.019531 175.433594 204.324219 174.78125 C 203.933594 174.457031 204.195312 173.804688 204.195312 173.21875 Z M 193.359375 173.285156 C 193.617188 173.285156 193.75 173.351562 193.816406 173.675781 C 193.488281 173.804688 193.421875 173.609375 193.359375 173.285156 Z M 195.902344 178.429688 C 195.902344 178.363281 195.902344 178.234375 195.839844 178.101562 C 195.96875 178.101562 196.097656 178.101562 196.164062 178.039062 C 196.164062 178.234375 196.164062 178.296875 196.230469 178.363281 C 196.097656 178.429688 195.96875 178.429688 195.902344 178.429688 Z M 198.90625 175.953125 C 199.234375 175.824219 199.296875 176.019531 199.363281 176.34375 C 198.90625 176.410156 198.777344 176.214844 198.90625 175.953125 Z M 199.753906 173.414062 C 199.429688 173.480469 199.167969 173.414062 199.035156 173.285156 C 199.035156 173.023438 199.167969 172.894531 199.101562 172.632812 C 199.167969 172.632812 199.363281 172.632812 199.492188 172.570312 C 199.753906 172.765625 199.820312 173.023438 199.753906 173.414062 Z M 201.648438 173.023438 C 200.929688 173.285156 201.191406 172.503906 200.996094 172.4375 C 201.0625 172.046875 201.648438 172.308594 201.714844 172.375 C 201.777344 172.699219 201.519531 172.765625 201.648438 173.023438 Z M 165.15625 245.484375 C 176.515625 245.617188 190.8125 245.941406 198.839844 246.070312 L 201.714844 238.195312 L 169.660156 240.601562 C 168.160156 242.230469 166.660156 243.859375 165.15625 245.484375 Z M 167.378906 245.484375 C 167.378906 245.421875 167.378906 245.289062 167.3125 245.160156 C 167.441406 245.160156 167.574219 245.160156 167.636719 245.09375 C 167.636719 245.289062 167.636719 245.355469 167.703125 245.421875 C 167.574219 245.484375 167.507812 245.484375 167.378906 245.484375 Z M 166.722656 172.179688 C 166.789062 172.179688 166.789062 172.179688 166.855469 172.179688 L 167.117188 171.136719 L 161.371094 171.007812 C 161.632812 171.789062 160.71875 171.851562 160.785156 171.070312 C 160.914062 171.070312 161.109375 171.007812 161.304688 171.007812 L 160.195312 171.007812 C 159.542969 171.332031 158.824219 171.65625 158.171875 171.984375 C 158.171875 172.046875 158.109375 172.179688 158.109375 172.242188 C 157.976562 172.179688 157.910156 172.179688 157.847656 172.113281 C 150.339844 175.824219 144.335938 178.753906 144.335938 178.753906 L 136.894531 182.660156 C 137.742188 184.613281 145.902344 201.410156 146.488281 202.320312 C 146.617188 202.453125 148.511719 201.734375 151.582031 200.304688 C 151.582031 200.238281 151.582031 200.171875 151.582031 200.109375 C 151.839844 200.109375 151.972656 200.109375 152.035156 200.109375 C 154.453125 199 157.519531 197.570312 160.980469 195.941406 L 166.789062 172.503906 C 166.789062 172.375 166.722656 172.242188 166.722656 172.179688 Z M 148.773438 178.039062 C 148.839844 178.039062 148.839844 177.972656 148.902344 177.90625 C 148.839844 178.039062 148.839844 178.039062 148.773438 178.039062 Z M 151.1875 181.8125 C 149.816406 182.074219 150.210938 179.925781 151.382812 180.511719 C 151.253906 180.902344 151.058594 181.226562 151.1875 181.8125 Z M 151.058594 175.824219 C 151.1875 175.433594 151.449219 175.433594 151.582031 175.5625 C 151.644531 175.890625 151.253906 175.953125 151.058594 175.824219 Z M 153.996094 184.875 C 154.320312 184.808594 154.320312 185.003906 154.386719 185.003906 C 154.519531 185.265625 153.800781 185.265625 153.996094 184.875 Z M 155.5625 180.25 C 155.5625 180.1875 155.5625 179.992188 155.496094 179.925781 C 155.628906 179.925781 155.757812 179.925781 155.824219 179.859375 C 155.824219 180.054688 155.824219 180.121094 155.886719 180.1875 C 155.691406 180.25 155.628906 180.25 155.5625 180.25 Z M 160.457031 176.34375 C 160.523438 177.0625 160 176.867188 159.738281 176.605469 C 159.871094 176.019531 160 176.476562 160.457031 176.34375 Z M 160.195312 183.832031 C 159.542969 183.703125 159.542969 183.898438 159.023438 183.570312 C 158.695312 182.140625 159.609375 180.96875 160.523438 181.878906 C 160.589844 182.726562 159.738281 182.921875 160.195312 183.832031 Z M 161.242188 175.171875 C 161.371094 174.71875 162.089844 175.304688 161.242188 175.171875 Z M 161.242188 175.171875 " fill-opacity="1" fill-rule="nonzero"/><g clip-path="url(#e3bea5c8ec)"><path fill="#50c8ec" d="M 172.992188 164.820312 L 193.160156 164.886719 L 193.160156 162.738281 L 174.035156 164.300781 C 181.671875 160.589844 187.875 157.59375 188.136719 157.53125 C 188.332031 157.464844 188.070312 157.007812 187.546875 156.421875 L 186.175781 157.140625 L 184.609375 154.992188 C 181.867188 156.617188 173.578125 161.5 165.222656 166.449219 C 165.222656 166.515625 165.222656 166.644531 165.289062 166.773438 C 165.09375 166.773438 164.960938 166.710938 164.898438 166.644531 C 162.417969 168.078125 159.9375 169.574219 157.585938 170.941406 L 160.195312 171.007812 C 164.375 168.988281 168.878906 166.773438 172.992188 164.820312 Z M 180.5625 164.300781 C 180.890625 164.171875 180.957031 164.367188 181.019531 164.691406 C 180.628906 164.757812 180.433594 164.5625 180.5625 164.300781 Z M 161.761719 137.023438 L 164.046875 137.152344 C 163.460938 136.304688 162.808594 135.265625 162.089844 134.222656 L 169.859375 134.484375 L 172.207031 137.738281 C 166.527344 137.542969 162.15625 137.347656 161.828125 137.28125 Z M 192.835938 171.59375 L 192.902344 174.71875 L 167.179688 171.527344 L 167.117188 171.136719 C 167.117188 171.203125 167.964844 171.265625 169.335938 171.332031 C 169.402344 171.398438 169.402344 171.460938 169.464844 171.460938 C 169.597656 171.460938 169.726562 171.398438 169.792969 171.332031 C 176.320312 171.59375 192.835938 171.59375 192.835938 171.59375 Z M 168.292969 149.71875 L 181.476562 150.695312 L 180.171875 148.871094 C 180.042969 148.9375 179.84375 149 179.648438 149 C 179.585938 148.675781 179.648438 148.414062 179.714844 148.21875 L 179.128906 147.4375 C 174.558594 147.242188 170.25 147.046875 168.292969 146.917969 Z M 169.269531 147.4375 C 169.269531 147.503906 169.269531 147.699219 169.335938 147.894531 C 169.007812 148.023438 168.945312 147.828125 168.878906 147.503906 C 168.945312 147.503906 169.140625 147.503906 169.269531 147.4375 Z M 222.929688 174.585938 L 228.738281 177.710938 L 232.003906 172.632812 L 236.769531 174.914062 L 239.769531 170.679688 C 239.769531 170.679688 237.617188 169.640625 234.742188 168.335938 L 239.050781 161.566406 L 233.570312 159.546875 C 233.046875 159.875 231.152344 162.476562 229 165.601562 C 225.734375 164.105469 222.863281 162.804688 222.277344 162.609375 L 220.054688 166.90625 L 226.128906 169.769531 C 224.953125 171.59375 223.84375 173.21875 222.929688 174.585938 Z M 226.257812 175.042969 C 226.128906 175.042969 225.867188 175.109375 225.671875 175.109375 C 225.472656 174.523438 226.324219 174.390625 226.257812 175.042969 Z M 245.1875 189.300781 L 228.804688 179.535156 C 228.804688 179.601562 228.804688 179.730469 228.804688 179.796875 C 228.671875 179.796875 228.542969 179.796875 228.476562 179.859375 C 228.476562 179.796875 228.476562 179.730469 228.476562 179.730469 L 227.957031 180.1875 C 227.957031 180.1875 221.558594 176.34375 220.96875 175.757812 L 221.425781 175.304688 L 207 166.710938 C 207 166.710938 202.824219 185.65625 200.929688 197.765625 C 204.324219 199.328125 214.835938 205.054688 219.207031 207.53125 Z M 241.859375 187.867188 C 242.054688 188.453125 241.074219 188.585938 241.140625 187.933594 C 241.335938 187.867188 241.597656 187.867188 241.859375 187.867188 Z M 240.292969 190.992188 C 240.359375 191.644531 239.964844 191.773438 239.640625 191.839844 C 239.445312 191.773438 239.445312 191.515625 239.445312 191.253906 C 239.574219 191.058594 239.964844 190.992188 240.292969 190.992188 Z M 232.589844 187.28125 C 232.523438 187.738281 232.199219 187.867188 232.132812 188.324219 C 231.609375 188.585938 231.871094 187.609375 231.675781 187.21875 C 232.066406 187.152344 232.394531 187.152344 232.589844 187.28125 Z M 222.929688 192.554688 C 223.125 192.621094 223.125 192.6875 223.253906 192.6875 C 223.253906 192.75 223.125 192.816406 223.125 193.078125 C 222.929688 193.011719 222.929688 192.945312 222.796875 192.945312 C 222.863281 192.6875 222.992188 192.6875 222.929688 192.554688 Z M 220.839844 197.699219 C 220.773438 197.242188 221.425781 197.828125 220.839844 197.699219 Z M 206.023438 183.375 C 206.023438 183.375 205.890625 183.375 205.761719 183.375 C 205.761719 183.179688 205.628906 183.179688 205.566406 183.246094 C 205.5 182.984375 206.21875 182.984375 206.023438 183.375 Z M 207.066406 167.882812 C 207.394531 167.816406 207.457031 168.273438 207.261719 168.46875 C 206.871094 168.53125 206.804688 168.140625 207.066406 167.882812 Z M 207.261719 190.277344 C 207.457031 189.691406 207.847656 190.796875 207.261719 190.277344 Z M 210.070312 189.820312 C 210.070312 189.886719 209.875 189.820312 210.070312 189.820312 Z M 213.136719 176.867188 C 212.941406 176.800781 212.8125 176.605469 212.679688 176.539062 C 212.679688 176.214844 213.269531 176.476562 213.136719 176.867188 Z M 213.984375 197.960938 C 213.332031 198.089844 213.398438 197.503906 213.332031 196.917969 C 213.464844 196.65625 214.117188 196.59375 214.3125 196.789062 C 214.246094 197.242188 214.179688 197.699219 213.984375 197.960938 Z M 218.621094 196.917969 C 218.488281 197.375 218.164062 196.722656 218.230469 196.332031 C 218.554688 196.203125 218.621094 196.398438 218.816406 196.460938 C 218.882812 196.65625 218.097656 196.851562 218.621094 196.917969 Z M 218.230469 176.867188 C 218.621094 176.734375 218.882812 176.800781 218.816406 177.257812 C 218.554688 177.320312 218.292969 177.257812 218.230469 176.867188 Z M 202.234375 232.855469 C 202.367188 232.855469 202.496094 232.921875 202.628906 232.984375 C 202.628906 233.375 202.496094 233.507812 202.300781 233.507812 L 202.628906 235.71875 L 208.242188 220.160156 C 206.28125 218.921875 202.5625 216.515625 199.363281 214.429688 Z M 205.433594 223.023438 C 205.304688 223.546875 204.847656 223.742188 204.847656 224.328125 C 203.019531 224.457031 204.324219 221.65625 205.433594 223.023438 Z M 214.703125 210.460938 L 200.210938 202.84375 L 197.339844 201.085938 L 198.90625 211.371094 L 209.023438 218.078125 L 209.15625 217.75 L 214.246094 220.679688 L 221.363281 215.734375 L 213.722656 211.109375 Z M 203.34375 214.105469 C 202.953125 214.171875 202.5625 213.390625 202.824219 213.0625 C 203.214844 213 203.28125 213.585938 203.605469 213.585938 C 203.410156 213.78125 203.214844 213.84375 203.34375 214.105469 Z M 217.902344 215.929688 C 217.640625 216.058594 217.511719 215.863281 217.445312 215.539062 C 217.511719 215.734375 217.902344 215.472656 217.902344 215.929688 Z M 215.03125 213.648438 C 215.421875 213.0625 215.421875 214.105469 215.03125 213.648438 Z M 211.441406 211.957031 C 210.917969 212.21875 210.917969 211.046875 210.984375 210.71875 C 211.375 210.589844 211.441406 210.914062 211.699219 210.851562 C 211.832031 211.371094 211.179688 211.242188 211.441406 211.957031 Z M 213.070312 214.039062 C 211.765625 214.171875 212.222656 212.085938 213.269531 213 C 213.332031 213.453125 212.875 213.390625 213.070312 214.039062 Z M 135.71875 276.929688 L 135.914062 276.476562 C 135.261719 276.148438 134.671875 275.824219 134.214844 275.628906 C 134.214844 275.695312 134.152344 275.695312 134.214844 275.824219 C 134.085938 275.824219 133.957031 275.824219 133.890625 275.890625 C 133.890625 275.824219 133.890625 275.628906 133.824219 275.5 C 132.976562 275.109375 132.519531 274.914062 132.519531 275.109375 L 116.003906 288.390625 C 116.003906 288.519531 115.9375 288.585938 115.742188 288.585938 L 112.804688 290.929688 L 178.605469 328.039062 L 183.238281 304.339844 L 178.800781 301.671875 C 178.800781 301.539062 136.632812 277.515625 135.71875 276.929688 Z M 126.644531 280.25 C 126.710938 280.25 126.90625 280.25 127.035156 280.1875 C 127.035156 280.25 127.035156 280.445312 127.101562 280.640625 C 126.710938 280.835938 126.511719 280.640625 126.644531 280.25 Z M 129.125 283.832031 C 129.191406 283.246094 129.515625 284.417969 129.125 283.832031 Z M 132.714844 288.78125 C 132.453125 288.648438 132.386719 287.933594 132.585938 287.738281 C 132.714844 287.738281 132.976562 287.671875 133.171875 287.671875 C 133.300781 288 133.5 288.195312 133.433594 288.714844 C 133.171875 288.714844 132.84375 288.714844 132.714844 288.78125 Z M 133.238281 275.695312 C 133.300781 275.695312 133.5 275.695312 133.628906 275.628906 C 133.628906 275.695312 133.628906 275.890625 133.695312 276.085938 C 133.300781 276.214844 133.171875 276.085938 133.238281 275.695312 Z M 139.960938 285.914062 C 140.027344 285.914062 140.222656 285.914062 140.351562 285.851562 C 140.351562 285.914062 140.351562 286.109375 140.417969 286.304688 C 140.027344 286.4375 139.894531 286.371094 139.960938 285.914062 Z M 144.269531 282.660156 C 144.269531 282.855469 144.269531 282.921875 144.335938 282.984375 C 143.617188 283.3125 143.878906 282.269531 144.269531 282.660156 Z M 154.582031 290.148438 C 154.84375 290.863281 154.777344 292.101562 155.691406 292.101562 C 154.714844 293.140625 153.015625 290.40625 154.582031 290.148438 Z M 155.953125 297.894531 C 154.84375 298.742188 155.171875 299.78125 156.34375 300.304688 C 154.453125 300.433594 153.34375 297.503906 155.953125 297.894531 Z M 159.542969 294.964844 C 159.542969 294.769531 159.542969 294.703125 159.480469 294.640625 C 159.609375 294.507812 159.871094 294.574219 159.9375 294.964844 C 159.871094 294.964844 159.675781 294.964844 159.542969 294.964844 Z M 163.984375 303.167969 C 164.113281 303.167969 164.242188 303.296875 164.375 303.558594 C 163.984375 303.6875 163.785156 303.429688 163.984375 303.167969 Z M 163.984375 294.117188 C 164.113281 294.117188 164.375 294.054688 164.570312 294.054688 C 163.984375 294.898438 165.027344 295.355469 165.15625 296.398438 C 164.046875 296.398438 164.179688 294.769531 163.984375 294.117188 Z M 170.445312 308.179688 C 170.574219 307.726562 170.835938 308.765625 170.445312 308.179688 Z M 185.199219 258.765625 L 164.179688 257.660156 C 164.179688 257.789062 164.179688 257.855469 164.179688 257.921875 C 164.046875 257.921875 163.917969 257.921875 163.851562 257.984375 C 163.851562 257.921875 163.851562 257.789062 163.851562 257.660156 L 154.519531 257.140625 C 150.925781 261.046875 147.53125 264.757812 144.464844 268.078125 C 142.050781 270.679688 139.894531 273.023438 138.066406 275.042969 L 164.636719 289.105469 C 164.636719 288.84375 164.699219 288.648438 164.699219 288.453125 C 165.289062 288.390625 165.09375 288.585938 165.484375 288.390625 C 165.15625 288.519531 165.222656 289.039062 165.15625 289.429688 L 180.171875 297.375 L 194.011719 259.222656 L 185.523438 258.765625 C 185.460938 258.832031 185.261719 258.832031 185.199219 258.765625 Z M 142.375 274.132812 C 142.375 273.675781 142.964844 274.261719 142.375 274.132812 Z M 143.679688 269.507812 C 144.074219 269.445312 144.335938 269.445312 144.398438 269.640625 C 144.464844 270.03125 143.617188 270.09375 143.679688 269.507812 Z M 145.25 271.917969 C 144.792969 271.851562 144.660156 271.59375 144.792969 271.136719 C 145.3125 271.203125 145.3125 271.398438 145.25 271.917969 Z M 152.429688 280.316406 C 152.167969 280.25 152.101562 280.054688 151.839844 279.992188 C 151.972656 279.601562 151.90625 279.144531 152.035156 278.882812 C 152.625 279.015625 152.691406 279.730469 152.429688 280.316406 Z M 153.148438 261.109375 C 153.539062 261.175781 153.539062 260.785156 153.863281 260.851562 C 153.996094 261.761719 153.210938 261.890625 153.148438 261.109375 Z M 153.472656 279.730469 C 153.863281 279.601562 154.257812 279.730469 154.257812 280.445312 C 153.734375 280.578125 153.605469 280.1875 153.472656 279.730469 Z M 157.257812 260.589844 C 157.519531 260.460938 157.519531 260.65625 157.652344 260.71875 C 157.847656 260.980469 157.0625 260.980469 157.257812 260.589844 Z M 159.9375 263 C 159.609375 263.128906 159.542969 262.933594 159.347656 262.867188 C 159.28125 262.609375 160.132812 262.542969 159.9375 263 Z M 161.960938 266.382812 C 162.023438 266.382812 162.023438 266.320312 162.089844 266.253906 C 162.023438 266.382812 162.023438 266.382812 161.960938 266.382812 Z M 164.375 270.226562 C 163.003906 270.484375 163.394531 268.335938 164.570312 268.921875 C 164.441406 269.3125 164.242188 269.574219 164.375 270.226562 Z M 164.242188 264.171875 C 164.375 263.78125 164.636719 263.78125 164.765625 263.910156 C 164.765625 264.300781 164.375 264.367188 164.242188 264.171875 Z M 181.476562 260.328125 C 181.214844 260.65625 181.152344 260.265625 180.890625 260.199219 C 180.890625 259.742188 181.542969 259.742188 181.476562 260.328125 Z M 181.28125 283.703125 C 181.152344 283.703125 180.890625 283.765625 180.695312 283.765625 C 180.5 283.441406 180.628906 283.3125 180.757812 283.117188 C 180.957031 283.179688 181.410156 283.117188 181.28125 283.703125 Z M 180.890625 260.851562 C 180.757812 260.851562 180.628906 260.851562 180.5625 260.914062 C 180.5625 260.71875 180.433594 260.71875 180.367188 260.785156 C 180.300781 260.460938 181.085938 260.328125 180.890625 260.851562 Z M 180.238281 260.523438 C 180.238281 260.71875 180.238281 260.785156 180.300781 260.851562 C 180.171875 260.851562 180.042969 260.851562 179.976562 260.914062 C 179.976562 260.851562 179.976562 260.65625 179.910156 260.589844 C 180.042969 260.523438 180.171875 260.523438 180.238281 260.523438 Z M 173.644531 264.757812 C 173.710938 265.472656 173.1875 265.277344 172.925781 265.015625 C 173.054688 264.429688 173.1875 264.886719 173.644531 264.757812 Z M 167.179688 273.285156 C 167.507812 273.21875 167.507812 273.414062 167.574219 273.414062 C 167.703125 273.675781 166.984375 273.609375 167.179688 273.285156 Z M 166.921875 261.304688 C 167.3125 261.242188 167.574219 261.242188 167.703125 261.695312 C 167.441406 261.957031 166.789062 261.957031 166.921875 261.304688 Z M 168.75 268.664062 C 168.75 268.597656 168.75 268.402344 168.683594 268.335938 C 168.8125 268.335938 168.945312 268.335938 169.007812 268.273438 C 169.007812 268.46875 169.007812 268.53125 169.074219 268.597656 C 168.878906 268.664062 168.8125 268.664062 168.75 268.664062 Z M 168.878906 260.65625 C 169.007812 260.65625 169.140625 260.65625 169.464844 260.589844 C 169.660156 261.175781 168.8125 261.242188 168.878906 260.65625 Z M 169.988281 289.171875 C 170.183594 288.648438 170.445312 289.757812 169.988281 289.171875 Z M 170.511719 258.765625 C 170.378906 258.765625 170.25 258.765625 170.183594 258.832031 C 170.183594 258.636719 170.054688 258.636719 169.988281 258.703125 C 169.988281 258.246094 170.640625 258.3125 170.511719 258.765625 Z M 171.292969 260.65625 C 170.054688 260.265625 171.945312 258.703125 172.207031 259.9375 C 171.425781 259.808594 171.425781 260.265625 171.292969 260.65625 Z M 173.382812 272.242188 C 172.730469 272.113281 172.730469 272.308594 172.207031 271.984375 C 171.882812 270.550781 172.796875 269.378906 173.710938 270.289062 C 173.773438 271.136719 172.859375 271.332031 173.382812 272.242188 Z M 173.96875 259.484375 C 174.101562 259.484375 174.363281 259.417969 174.558594 259.417969 C 174.753906 260.199219 173.90625 260.265625 173.96875 259.484375 Z M 174.425781 263.585938 C 174.492188 263.128906 175.210938 263.648438 174.425781 263.585938 Z M 175.734375 293.335938 C 175.40625 293.46875 175.339844 293.207031 175.277344 292.75 C 175.472656 292.945312 175.863281 292.882812 175.734375 293.335938 Z M 179.84375 271.398438 C 180.238281 271.332031 180.5 272.113281 180.367188 272.4375 C 179.78125 272.503906 179.519531 271.722656 179.84375 271.398438 Z M 180.824219 285.328125 C 180.105469 285.394531 180.042969 284.351562 180.367188 283.960938 C 181.410156 284.222656 181.347656 283.3125 182.128906 283.570312 C 182.128906 283.765625 182.195312 284.027344 182.195312 284.222656 C 181.410156 284.417969 181.085938 284.808594 180.824219 285.328125 Z M 182.652344 267.425781 C 182.585938 266.839844 183.304688 267.425781 182.652344 267.425781 Z M 183.5 281.226562 C 183.695312 280.96875 183.894531 281.164062 184.21875 281.164062 C 184.347656 281.488281 183.4375 281.75 183.5 281.226562 Z M 184.21875 280.316406 C 184.609375 280.25 184.804688 280.316406 184.804688 280.707031 C 184.675781 281.097656 184.21875 280.835938 184.21875 280.316406 Z M 184.871094 265.734375 C 183.304688 265.734375 182.71875 262.023438 185.003906 262.867188 C 184.546875 263.78125 184.414062 264.429688 184.871094 265.734375 Z M 187.15625 259.351562 C 187.222656 258.898438 187.875 259.484375 187.15625 259.351562 Z M 186.308594 265.472656 C 186.308594 265.734375 186.175781 265.863281 185.917969 265.863281 C 185.917969 265.539062 186.113281 265.601562 186.308594 265.472656 Z M 186.308594 265.472656 " fill-opacity="1" fill-rule="nonzero"/></g><path fill="#f15923" d="M 198.1875 148.351562 L 203.410156 138.976562 L 200.539062 138.84375 C 200.34375 138.84375 183.566406 138.257812 172.144531 137.804688 L 179.191406 147.503906 C 180.105469 147.570312 180.957031 147.570312 181.867188 147.632812 C 181.867188 147.570312 181.867188 147.570312 181.867188 147.503906 C 182.585938 147.4375 183.238281 147.242188 183.4375 147.699219 C 189.113281 147.960938 194.074219 148.089844 194.074219 148.089844 L 194.074219 148.15625 Z M 180.5625 141.1875 C 180.5625 141.125 180.628906 141.253906 180.5625 141.1875 Z M 181.214844 138.714844 C 181.214844 138.519531 181.214844 138.453125 181.152344 138.390625 C 181.28125 138.390625 181.410156 138.390625 181.476562 138.324219 C 181.476562 138.519531 181.476562 138.585938 181.542969 138.648438 C 181.542969 138.648438 181.347656 138.648438 181.214844 138.714844 Z M 188.789062 146.265625 C 188.398438 146.332031 188.003906 145.550781 188.265625 145.226562 C 188.65625 145.160156 188.722656 145.746094 189.050781 145.746094 C 188.917969 145.941406 188.65625 146.007812 188.789062 146.265625 Z M 198.777344 145.160156 C 198.839844 145.617188 198.320312 145.550781 198.582031 146.203125 C 197.273438 146.332031 197.667969 144.183594 198.777344 145.160156 Z M 196.425781 142.882812 C 196.816406 142.75 196.882812 143.078125 197.144531 143.011719 C 197.273438 143.53125 196.621094 143.402344 196.882812 144.117188 C 196.359375 144.3125 196.359375 143.140625 196.425781 142.882812 Z M 184.609375 154.992188 C 185.199219 154.601562 185.589844 154.40625 185.589844 154.40625 C 185.589844 154.40625 186.765625 155.511719 187.546875 156.421875 L 189.570312 155.382812 C 189.769531 154.992188 190.160156 154.730469 190.550781 154.859375 L 193.292969 153.429688 L 193.292969 151.605469 L 181.542969 150.695312 Z M 184.546875 152.125 C 184.152344 152.191406 183.957031 151.671875 184.089844 151.34375 C 184.480469 151.214844 184.480469 151.671875 184.546875 152.125 Z M 201.714844 238.257812 L 202.628906 235.71875 L 203.019531 238.195312 Z M 203.800781 164.691406 L 202.234375 168.078125 L 200.863281 164.691406 Z M 163.003906 124.914062 C 163.332031 124.78125 163.394531 124.976562 163.589844 125.042969 C 163.527344 125.171875 163.527344 125.5 163.332031 125.5625 L 169.792969 134.546875 L 171.488281 134.613281 C 171.488281 134.417969 171.488281 134.15625 171.359375 133.832031 C 171.6875 133.703125 171.816406 133.507812 172.273438 133.570312 C 172.207031 133.960938 171.945312 134.222656 171.945312 134.679688 L 202.496094 135.785156 L 206.28125 129.925781 C 206.28125 129.925781 206.21875 129.925781 206.21875 129.925781 C 206.21875 129.730469 206.28125 129.730469 206.414062 129.796875 L 211.765625 121.527344 L 201.910156 123.9375 L 193.421875 128.296875 C 193.421875 128.296875 185.851562 114.171875 185.851562 113.648438 C 185.851562 113.128906 170.96875 126.996094 170.96875 126.996094 C 170.96875 126.996094 164.636719 125.433594 163.785156 124.78125 L 162.21875 124.195312 L 163.003906 125.238281 C 163.070312 125.042969 163.070312 124.976562 163.003906 124.914062 Z M 208.4375 124.652344 C 208.632812 124.71875 208.632812 124.78125 208.761719 124.78125 C 208.761719 124.847656 208.632812 124.914062 208.632812 125.171875 C 208.4375 125.109375 208.4375 125.042969 208.304688 125.042969 C 208.371094 124.847656 208.4375 124.847656 208.4375 124.652344 Z M 203.738281 128.492188 C 204.0625 128.363281 204.128906 128.558594 204.324219 128.625 C 204.324219 128.820312 203.542969 128.949219 204.128906 129.078125 C 204 129.535156 203.671875 128.882812 203.738281 128.492188 Z M 199.753906 129.015625 C 199.691406 129.40625 199.691406 129.859375 199.492188 130.121094 C 198.839844 130.25 198.90625 129.664062 198.839844 129.078125 C 198.90625 128.820312 199.558594 128.753906 199.753906 129.015625 Z M 189.179688 134.679688 C 189.179688 134.742188 189.179688 134.875 189.246094 135.003906 C 189.113281 135.003906 188.984375 135.003906 188.917969 135.070312 C 188.917969 134.875 188.917969 134.808594 188.855469 134.742188 C 189.050781 134.742188 189.113281 134.679688 189.179688 134.679688 Z M 186.308594 122.894531 C 186.765625 122.503906 186.046875 123.480469 186.308594 122.894531 Z M 185.589844 123.351562 C 186.308594 122.4375 185.394531 124.457031 185.589844 123.546875 C 185.589844 123.414062 185.589844 123.351562 185.589844 123.351562 Z M 184.609375 117.882812 C 184.742188 118.335938 184.480469 118.273438 184.546875 118.726562 C 184.21875 118.46875 184.023438 117.816406 184.609375 117.882812 Z M 183.566406 123.546875 C 183.632812 124.195312 183.371094 124.457031 183.109375 124.847656 C 182.324219 124.847656 182.71875 122.828125 183.566406 123.546875 Z M 177.234375 131.878906 C 177.757812 131.75 177.691406 132.074219 177.886719 132.140625 C 177.886719 132.855469 177.5625 133.375 176.972656 132.855469 C 176.972656 132.335938 177.234375 132.269531 177.234375 131.878906 Z M 175.472656 128.753906 C 175.601562 129.210938 175.082031 129.144531 175.144531 129.601562 C 174.820312 129.535156 174.625 129.210938 174.625 128.6875 C 175.082031 128.625 175.277344 128.558594 175.472656 128.753906 Z M 170.902344 133.117188 C 170.707031 133.765625 170.054688 134.027344 169.988281 133.050781 C 170.378906 132.855469 170.835938 132.855469 170.902344 133.117188 Z M 169.988281 130.1875 C 169.792969 130.121094 169.53125 129.992188 169.53125 129.601562 C 169.988281 129.144531 170.316406 129.796875 169.988281 130.1875 Z M 165.15625 245.484375 C 161.566406 249.390625 157.910156 253.363281 154.519531 257.074219 L 139.503906 256.226562 L 144.59375 244.964844 C 144.726562 244.964844 145.964844 245.03125 148.054688 245.09375 L 148.054688 245.617188 C 148.445312 245.421875 155.824219 245.421875 165.15625 245.484375 Z M 175.929688 120.941406 C 175.863281 120.289062 176.515625 119.378906 177.234375 119.898438 C 181.347656 116.578125 185.980469 112.738281 185.980469 112.738281 L 194.273438 125.109375 L 201.972656 123.871094 C 201.910156 118.859375 199.820312 106.554688 186.570312 104.078125 C 186.046875 101.734375 185.132812 98.609375 184.152344 96.722656 C 186.113281 95.746094 186.894531 93.335938 185.917969 91.382812 C 184.9375 89.429688 182.523438 88.648438 180.5625 89.625 C 178.605469 90.601562 177.820312 93.011719 178.800781 94.964844 C 179.324219 96.007812 180.300781 96.789062 181.476562 97.046875 C 181.019531 99.261719 180.757812 101.539062 180.757812 103.820312 C 169.921875 105.1875 165.746094 117.035156 164.308594 122.765625 C 165.941406 123.21875 170.25 124.390625 170.902344 124.523438 C 171.164062 124.585938 173.316406 122.960938 175.929688 120.941406 Z M 195.511719 121.984375 C 195.511719 122.046875 195.382812 121.984375 195.511719 121.984375 Z M 192.769531 122.4375 C 192.902344 121.851562 193.292969 122.894531 192.769531 122.4375 Z M 191.464844 115.539062 C 191.464844 115.539062 191.335938 115.539062 191.203125 115.539062 C 191.203125 115.34375 191.074219 115.34375 191.007812 115.40625 C 190.941406 115.148438 191.660156 115.148438 191.464844 115.539062 Z M 184.742188 108.050781 C 184.9375 107.464844 185.199219 108.507812 184.742188 108.050781 Z M 183.109375 104.601562 C 182.847656 105.054688 182.71875 105.640625 182.128906 105.773438 C 181.867188 104.730469 182.585938 104.210938 183.109375 104.601562 Z M 180.957031 94.183594 C 180.5625 93.597656 180.824219 93.207031 181.476562 93.53125 C 181.542969 94.054688 181.410156 94.25 180.957031 94.183594 Z M 175.015625 106.8125 C 175.339844 106.75 175.601562 106.8125 175.734375 106.945312 C 175.863281 107.269531 175.339844 107.726562 175.667969 107.789062 C 175.339844 108.441406 174.6875 107.269531 175.015625 106.8125 Z M 175.339844 110.003906 C 175.40625 110.460938 174.753906 110.785156 174.425781 110.523438 C 174.425781 110.460938 174.425781 110.265625 174.363281 110.070312 C 174.625 109.742188 175.015625 109.9375 175.339844 110.003906 Z M 173.90625 121.65625 C 173.90625 121.59375 173.90625 121.460938 173.90625 121.460938 C 174.625 120.617188 173.773438 122.632812 173.90625 121.65625 Z M 166.984375 121.265625 C 167.246094 121.265625 167.378906 121.398438 167.441406 121.65625 C 167.117188 121.789062 167.050781 121.59375 166.984375 121.265625 Z M 169.660156 115.992188 C 169.402344 115.992188 169.859375 115.734375 169.597656 115.34375 C 169.726562 115.34375 169.988281 115.277344 170.183594 115.277344 C 170.25 115.667969 169.660156 115.539062 169.660156 115.992188 Z M 209.285156 246.59375 L 204.257812 246.460938 L 204.195312 246.203125 C 203.148438 246.203125 201.320312 246.136719 198.839844 246.070312 L 194.074219 259.222656 L 214.179688 260.328125 Z M 200.800781 248.609375 C 200.929688 248.15625 201.519531 248.742188 200.800781 248.609375 Z M 200.667969 253.296875 C 201.386719 252.582031 201.257812 254.078125 200.667969 253.296875 Z M 194.074219 210.980469 L 196.035156 210.265625 L 191.921875 207.921875 C 191.792969 207.984375 191.660156 207.984375 191.464844 207.984375 C 191.464844 208.507812 191.792969 208.703125 191.59375 208.960938 C 190.941406 208.898438 190.8125 208.117188 190.941406 207.398438 L 189.570312 206.617188 C 189.570312 206.617188 194.273438 200.5 194.597656 199.847656 L 195.707031 200.171875 L 197.40625 201.214844 L 194.46875 181.878906 C 194.46875 181.878906 194.46875 181.878906 194.402344 181.878906 C 194.402344 181.8125 194.402344 181.75 194.402344 181.683594 L 194.140625 179.925781 C 189.375 182.269531 183.4375 185.199219 177.429688 188.128906 C 177.5625 188.195312 177.5625 188.257812 177.691406 188.257812 C 177.886719 188.519531 177.234375 188.585938 177.234375 188.195312 C 171.621094 190.929688 165.941406 193.726562 160.980469 196.070312 L 149.492188 242.101562 L 169.660156 240.601562 C 180.5 228.820312 190.746094 217.75 195.96875 212.21875 C 194.988281 211.566406 194.273438 211.109375 194.074219 210.980469 Z M 195.1875 192.035156 C 195.902344 191.125 194.988281 193.140625 195.1875 192.230469 C 195.1875 192.101562 195.1875 192.035156 195.1875 192.035156 Z M 194.792969 198.546875 C 194.792969 198.742188 194.792969 198.804688 194.859375 198.871094 C 194.730469 198.871094 194.597656 198.871094 194.53125 198.9375 C 194.53125 198.871094 194.53125 198.742188 194.46875 198.609375 C 194.664062 198.609375 194.730469 198.609375 194.792969 198.546875 Z M 192.3125 198.546875 C 192.25 198.089844 192.902344 198.675781 192.3125 198.546875 Z M 192.445312 194.25 C 192.117188 194.378906 192.050781 194.183594 191.988281 193.859375 C 192.25 193.792969 192.378906 193.859375 192.445312 194.25 Z M 191.007812 192.296875 C 191.398438 192.164062 191.464844 192.816406 191.398438 193.078125 C 190.878906 193.207031 190.8125 192.621094 191.007812 192.296875 Z M 191.335938 193.726562 C 191.007812 193.859375 190.941406 193.664062 190.746094 193.597656 C 190.617188 193.335938 191.53125 193.207031 191.335938 193.726562 Z M 189.769531 195.679688 C 189.769531 195.421875 189.898438 195.289062 190.289062 195.289062 C 190.289062 195.617188 190.09375 195.617188 189.769531 195.679688 Z M 189.832031 183.117188 C 189.769531 182.660156 190.484375 183.246094 189.832031 183.117188 Z M 189.703125 183.570312 C 189.703125 183.570312 189.898438 183.765625 189.703125 183.570312 Z M 189.703125 187.21875 C 189.636719 187.085938 189.832031 187.28125 189.703125 187.21875 Z M 166.269531 215.277344 C 166.464844 215.34375 166.855469 215.277344 166.722656 215.863281 C 166.59375 215.863281 166.332031 215.929688 166.136719 215.929688 C 166.007812 215.539062 166.136719 215.472656 166.269531 215.277344 Z M 155.429688 221.332031 C 155.628906 220.746094 155.886719 221.917969 155.429688 221.332031 Z M 155.886719 240.34375 C 156.019531 239.820312 156.28125 240.929688 155.886719 240.34375 Z M 161.242188 225.5 C 160.914062 225.628906 160.847656 225.367188 160.785156 224.914062 C 160.914062 225.109375 161.304688 225.042969 161.242188 225.5 Z M 165.289062 203.558594 C 165.679688 203.492188 165.941406 204.273438 165.8125 204.601562 C 165.222656 204.601562 165.027344 203.820312 165.289062 203.558594 Z M 166.269531 217.492188 C 165.550781 217.554688 165.484375 216.515625 165.8125 216.125 C 166.855469 216.382812 166.789062 215.472656 167.574219 215.734375 C 167.574219 215.929688 167.636719 216.1875 167.636719 216.382812 C 166.921875 216.515625 166.527344 216.90625 166.269531 217.492188 Z M 168.09375 199.523438 C 168.03125 199 168.75 199.585938 168.09375 199.523438 Z M 169.007812 213.324219 C 169.207031 213.0625 169.402344 213.257812 169.726562 213.257812 C 169.792969 213.648438 168.878906 213.910156 169.007812 213.324219 Z M 169.726562 212.476562 C 170.117188 212.414062 170.316406 212.476562 170.316406 212.867188 C 170.117188 213.257812 169.660156 213 169.726562 212.476562 Z M 170.25 225.5625 C 169.726562 225.695312 169.53125 224.914062 169.726562 224.652344 C 170.054688 224.78125 170.445312 225.171875 170.25 225.5625 Z M 170.378906 197.894531 C 168.8125 197.894531 168.226562 194.183594 170.511719 195.03125 C 169.988281 195.941406 169.921875 196.59375 170.378906 197.894531 Z M 171.425781 198.023438 C 171.359375 197.699219 171.554688 197.765625 171.816406 197.632812 C 171.816406 197.894531 171.6875 198.023438 171.425781 198.023438 Z M 172.597656 191.515625 C 172.730469 191.058594 173.316406 191.644531 172.597656 191.515625 Z M 174.167969 225.5 C 174.101562 224.976562 174.6875 225.5625 174.167969 225.5 Z M 175.472656 204.210938 C 175.667969 203.625 175.929688 204.796875 175.472656 204.210938 Z M 175.667969 224.847656 C 175.667969 224.652344 175.796875 224.585938 176.058594 224.457031 C 176.191406 224.78125 175.929688 224.78125 175.667969 224.847656 Z M 177.167969 210.589844 C 177.105469 210.070312 177.757812 210.71875 177.167969 210.589844 Z M 182.523438 185.785156 C 182.585938 186.957031 181.476562 185.914062 181.019531 186.761719 C 181.085938 186.046875 181.867188 185.980469 182.523438 185.785156 Z M 177.820312 189.953125 C 178.214844 189.886719 178.214844 190.082031 178.410156 190.082031 C 178.472656 190.539062 177.820312 190.539062 177.820312 189.953125 Z M 178.867188 218.726562 C 178.996094 218.597656 179.128906 218.792969 179.453125 218.859375 C 179.257812 219.117188 178.800781 219.378906 178.867188 218.726562 Z M 180.238281 188.195312 C 180.238281 187.933594 180.433594 188 180.628906 188.128906 C 180.824219 188.519531 180.171875 188.585938 180.238281 188.195312 Z M 181.347656 186.890625 C 181.609375 187.152344 181.347656 187.085938 181.410156 187.542969 C 180.824219 187.738281 180.757812 186.890625 181.347656 186.890625 Z M 181.28125 195.226562 C 181.609375 195.09375 181.671875 195.289062 181.867188 195.355469 C 181.867188 195.679688 181.28125 195.8125 181.28125 195.226562 Z M 182.71875 192.554688 C 182.71875 192.492188 182.71875 192.359375 182.652344 192.230469 C 182.78125 192.230469 182.914062 192.230469 182.980469 192.164062 C 182.980469 192.359375 182.980469 192.425781 183.042969 192.492188 C 182.847656 192.492188 182.78125 192.492188 182.71875 192.554688 Z M 182.261719 191.773438 C 182.523438 192.75 182.585938 192.359375 182.585938 193.207031 C 182.457031 193.207031 182.195312 193.273438 182 193.273438 C 181.476562 192.359375 182.066406 191.382812 182.390625 190.796875 C 182.71875 190.929688 182.980469 190.992188 183.304688 191.058594 C 183.238281 191.515625 182.457031 191.382812 182.261719 191.773438 Z M 185.066406 185.851562 C 185.003906 185.785156 184.871094 185.65625 185.066406 185.851562 C 185.328125 186.109375 185.199219 185.980469 185.066406 185.851562 Z M 185.523438 213.257812 C 185.523438 213.128906 185.71875 213.324219 185.523438 213.257812 Z M 186.960938 187.738281 C 186.632812 187.671875 186.242188 187.347656 186.570312 186.957031 C 186.832031 186.957031 186.832031 187.085938 187.089844 187.085938 C 187.089844 187.414062 186.960938 187.476562 186.960938 187.738281 Z M 187.742188 187.476562 C 187.742188 187.21875 187.875 187.21875 187.875 187.023438 C 188.070312 187.085938 188.199219 187.152344 188.265625 187.085938 C 188.136719 187.476562 188.003906 187.738281 187.742188 187.476562 Z M 188.984375 186.566406 C 188.65625 186.695312 188.59375 186.5 188.527344 186.175781 C 188.917969 186.109375 188.984375 186.304688 188.984375 186.566406 Z M 188.984375 186.566406 " fill-opacity="1" fill-rule="nonzero"/></svg>